<svg xmlns="http://www.w3.org/2000/svg" viewBox="0 0 180 180">
  <defs>
    <linearGradient id="g" x1="0%" y1="0%" x2="100%" y2="100%">
      <stop offset="0%" stop-color="#a78bfa"/>
      <stop offset="100%" stop-color="#6d28d9"/>
    </linearGradient>
  </defs>
  <rect width="180" height="180" rx="40" fill="url(#g)"/>
  <path d="M54 102 C39 102 34 90 36 79 C38 68 47 62 54 64 C54 53 62 45 71 47 C73 40 82 36 90 41" stroke="white" stroke-width="6.5" fill="none" stroke-linecap="round"/>
  <path d="M126 102 C141 102 146 90 144 79 C142 68 133 62 126 64 C126 53 118 45 109 47 C107 40 98 36 90 41" stroke="white" stroke-width="6.5" fill="none" stroke-linecap="round"/>
  <path d="M54 102 C54 111 62 119 71 119 C75 123 82 125 90 125 C98 125 105 123 109 119 C118 119 126 111 126 102" stroke="white" stroke-width="6.5" fill="none" stroke-linecap="round"/>
  <path d="M90 41 C86 56 86 75 90 90 C94 105 94 113 90 125" stroke="white" stroke-width="4" fill="none" stroke-linecap="round" opacity="0.55"/>
  <polygon points="96,54 83,88 92,88 85,126 105,84 94,84 107,54" fill="#fbbf24"/>
</svg>
