<svg xmlns="http://www.w3.org/2000/svg" viewBox="0 0 192 192">
  <defs>
    <linearGradient id="g" x1="0%" y1="0%" x2="100%" y2="100%">
      <stop offset="0%" stop-color="#a78bfa"/>
      <stop offset="100%" stop-color="#6d28d9"/>
    </linearGradient>
  </defs>
  <rect width="192" height="192" rx="44" fill="url(#g)"/>
  <!-- Brain left lobe -->
  <path d="M58 108 C42 108 36 96 38 84 C40 72 50 66 58 68 C58 56 66 48 76 50 C78 42 88 38 96 44" stroke="white" stroke-width="7" fill="none" stroke-linecap="round"/>
  <!-- Brain right lobe -->
  <path d="M134 108 C150 108 156 96 154 84 C152 72 142 66 134 68 C134 56 126 48 116 50 C114 42 104 38 96 44" stroke="white" stroke-width="7" fill="none" stroke-linecap="round"/>
  <!-- Brain bottom -->
  <path d="M58 108 C58 118 66 126 76 126 C80 130 88 132 96 132 C104 132 112 130 116 126 C126 126 134 118 134 108" stroke="white" stroke-width="7" fill="none" stroke-linecap="round"/>
  <!-- Brain center divide -->
  <path d="M96 44 C92 60 92 80 96 96 C100 112 100 120 96 132" stroke="white" stroke-width="4" fill="none" stroke-linecap="round" opacity="0.6"/>
  <!-- Lightning bolt -->
  <polygon points="102,58 88,94 98,94 90,134 112,90 100,90 114,58" fill="#fbbf24" opacity="0.95"/>
</svg>
